<svg xmlns="http://www.w3.org/2000/svg" width="1920" height="571.806" viewBox="0 0 1920 571.806">
  <g id="Group_1" data-name="Group 1" transform="translate(0 -509.195)">
    <path id="Subtraction_3" data-name="Subtraction 3" d="M1920,809H0V349.195a130.6,130.6,0,0,0,1.249,17.239,135.5,135.5,0,0,0,3.707,17.7,156.812,156.812,0,0,0,14.547,34.6,211.034,211.034,0,0,0,23.656,33.4,299.031,299.031,0,0,0,32.282,32.019,424.17,424.17,0,0,0,40.425,30.464c14.674,9.805,30.852,19.473,48.086,28.734,17.149,9.215,35.742,18.241,55.265,26.829,19.471,8.565,40.318,16.892,61.96,24.748a1387.029,1387.029,0,0,0,142.078,42.555c51.322,12.587,106.187,23.4,163.07,32.131,57.934,8.9,118.563,15.727,180.2,20.306,31.33,2.327,63.4,4.1,95.319,5.281,32.381,1.194,65.4,1.8,98.155,1.8s65.774-.605,98.154-1.8c31.919-1.177,63.989-2.954,95.319-5.281,61.64-4.579,122.269-11.411,180.2-20.306,56.882-8.734,111.747-19.545,163.07-32.131a1387.021,1387.021,0,0,0,142.077-42.555c21.641-7.856,42.487-16.183,61.96-24.748,19.52-8.586,38.113-17.613,55.265-26.829,17.233-9.26,33.411-18.927,48.086-28.734a424.156,424.156,0,0,0,40.425-30.464,298.989,298.989,0,0,0,32.282-32.019,211.034,211.034,0,0,0,23.656-33.4,156.815,156.815,0,0,0,14.547-34.6,135.551,135.551,0,0,0,3.707-17.7A130.242,130.242,0,0,0,1920,349.2Z" transform="translate(0 272)" fill="#fff"/>
    <path id="Subtraction_2" data-name="Subtraction 2" d="M1920,809H0V349.195a130.6,130.6,0,0,0,1.249,17.239,135.5,135.5,0,0,0,3.707,17.7,156.812,156.812,0,0,0,14.547,34.6,211.034,211.034,0,0,0,23.656,33.4,299.031,299.031,0,0,0,32.282,32.019,424.17,424.17,0,0,0,40.425,30.464c14.674,9.805,30.852,19.473,48.086,28.734,17.149,9.215,35.742,18.241,55.265,26.829,19.471,8.565,40.318,16.892,61.96,24.748a1387.029,1387.029,0,0,0,142.078,42.555c51.322,12.587,106.187,23.4,163.07,32.131,57.934,8.9,118.563,15.727,180.2,20.306,31.33,2.327,63.4,4.1,95.319,5.281,32.381,1.194,65.4,1.8,98.155,1.8s65.774-.605,98.154-1.8c31.919-1.177,63.989-2.954,95.319-5.281,61.64-4.579,122.269-11.411,180.2-20.306,56.882-8.734,111.747-19.545,163.07-32.131a1387.021,1387.021,0,0,0,142.077-42.555c21.641-7.856,42.487-16.183,61.96-24.748,19.52-8.586,38.113-17.613,55.265-26.829,17.233-9.26,33.411-18.927,48.086-28.734a424.156,424.156,0,0,0,40.425-30.464,298.989,298.989,0,0,0,32.282-32.019,211.034,211.034,0,0,0,23.656-33.4,156.815,156.815,0,0,0,14.547-34.6,135.551,135.551,0,0,0,3.707-17.7A130.242,130.242,0,0,0,1920,349.2Z" transform="translate(0 219)" fill="#fff" opacity="0.5"/>
    <path id="Subtraction_1" data-name="Subtraction 1" d="M1920,809H0V349.195a130.6,130.6,0,0,0,1.249,17.239,135.5,135.5,0,0,0,3.707,17.7,156.812,156.812,0,0,0,14.547,34.6,211.034,211.034,0,0,0,23.656,33.4,299.031,299.031,0,0,0,32.282,32.019,424.17,424.17,0,0,0,40.425,30.464c14.674,9.805,30.852,19.473,48.086,28.734,17.149,9.215,35.742,18.241,55.265,26.829,19.471,8.565,40.318,16.892,61.96,24.748a1387.029,1387.029,0,0,0,142.078,42.555c51.322,12.587,106.187,23.4,163.07,32.131,57.934,8.9,118.563,15.727,180.2,20.306,31.33,2.327,63.4,4.1,95.319,5.281,32.381,1.194,65.4,1.8,98.155,1.8s65.774-.605,98.154-1.8c31.919-1.177,63.989-2.954,95.319-5.281,61.64-4.579,122.269-11.411,180.2-20.306,56.882-8.734,111.747-19.545,163.07-32.131a1387.021,1387.021,0,0,0,142.077-42.555c21.641-7.856,42.487-16.183,61.96-24.748,19.52-8.586,38.113-17.613,55.265-26.829,17.233-9.26,33.411-18.927,48.086-28.734a424.156,424.156,0,0,0,40.425-30.464,298.989,298.989,0,0,0,32.282-32.019,211.034,211.034,0,0,0,23.656-33.4,156.815,156.815,0,0,0,14.547-34.6,135.551,135.551,0,0,0,3.707-17.7A130.242,130.242,0,0,0,1920,349.2Z" transform="translate(0 160)" fill="#fff" opacity="0.25"/>
  </g>
</svg>
